<?xml version="1.0" standalone="no"?><!DOCTYPE svg PUBLIC "-//W3C//DTD SVG 1.1//EN" "http://www.w3.org/Graphics/SVG/1.1/DTD/svg11.dtd"><svg t="1678729811910" class="icon" viewBox="0 0 1024 1024" version="1.1" xmlns="http://www.w3.org/2000/svg" p-id="8082" xmlns:xlink="http://www.w3.org/1999/xlink" width="200" height="200"><path d="M0 0m36.562636 0l950.874728 0q36.562636 0 36.562636 36.562636l0 950.874728q0 36.562636-36.562636 36.562636l-950.874728 0q-36.562636 0-36.562636-36.562636l0-950.874728q0-36.562636 36.562636-36.562636Z" fill="#494DCB" p-id="8083"></path><path d="M36.562636 0h950.873667C1007.629795 0 1024 16.370205 1024 36.562636v914.294052H0V36.562636C0 16.370205 16.370205 0 36.562636 0z" fill="#6165E6" p-id="8084"></path><path d="M548.571125 475.428875h292.571126v182.856688H548.571125z" fill="#FFFFFF" opacity=".495" p-id="8085"></path><path d="M182.856688 475.428875h292.571125v182.856688H182.856688z" fill="#FFFFFF" p-id="8086"></path><path d="M548.571125 182.856688h292.571126v182.856688H548.571125z" fill="#4E52D5" p-id="8087"></path><path d="M182.856688 182.856688h292.571125v182.856688H182.856688z" fill="#FFFFFF" opacity=".499" p-id="8088"></path></svg>